<?xml version="1.0" encoding="UTF-8" standalone="no"?>
<!DOCTYPE svg PUBLIC "-//W3C//DTD SVG 1.1//EN"
 "http://www.w3.org/Graphics/SVG/1.1/DTD/svg11.dtd">
<!-- Generated by graphviz version 2.47.0 (20210316.0004)
 -->
<!-- Title: dependencies Pages: 1 -->
<svg width="2168pt" height="284pt"
 viewBox="0.00 0.00 2168.00 284.00" xmlns="http://www.w3.org/2000/svg" xmlns:xlink="http://www.w3.org/1999/xlink">
<g id="graph0" class="graph" transform="scale(1 1) rotate(0) translate(4 280)">
<title>dependencies</title>
<polygon fill="white" stroke="transparent" points="-4,4 -4,-280 2164,-280 2164,4 -4,4"/>
<text text-anchor="start" x="1059.01" y="-42.4" font-family="Times-12" font-weight="bold" font-size="14.00">Legend</text>
<polygon fill="#ffffb3" stroke="transparent" points="846,-10 846,-30 866,-30 866,-10 846,-10"/>
<text text-anchor="start" x="869.63" y="-15.4" font-family="Times-12" font-size="14.00"> &#160;Declarations</text>
<polygon fill="#8dd3c7" stroke="transparent" points="959,-10 959,-30 979,-30 979,-10 959,-10"/>
<text text-anchor="start" x="982.73" y="-15.4" font-family="Times-12" font-size="14.00"> &#160;Module</text>
<polygon fill="#80b1d3" stroke="transparent" points="1045,-10 1045,-30 1065,-30 1065,-10 1045,-10"/>
<text text-anchor="start" x="1068.78" y="-15.4" font-family="Times-12" font-size="14.00"> &#160;Bootstrap</text>
<polygon fill="#fdb462" stroke="transparent" points="1142,-10 1142,-30 1162,-30 1162,-10 1142,-10"/>
<text text-anchor="start" x="1165.67" y="-15.4" font-family="Times-12" font-size="14.00"> &#160;Providers</text>
<polygon fill="#fb8072" stroke="transparent" points="1238,-10 1238,-30 1258,-30 1258,-10 1238,-10"/>
<text text-anchor="start" x="1261.73" y="-15.4" font-family="Times-12" font-size="14.00"> &#160;Exports</text>
<g id="clust1" class="cluster">
<title>cluster_AppModule</title>
<polygon fill="none" stroke="black" stroke-dasharray="1,5" points="8,-70 8,-268 2152,-268 2152,-70 8,-70"/>
</g>
<g id="clust13" class="cluster">
<title>cluster_AppModule_imports</title>
<polygon fill="none" stroke="black" points="1513,-78 1513,-130 2144,-130 2144,-78 1513,-78"/>
</g>
<g id="clust15" class="cluster">
<title>cluster_AppModule_bootstrap</title>
<polygon fill="none" stroke="black" points="1117,-208 1117,-260 1241,-260 1241,-208 1117,-208"/>
</g>
<g id="clust2" class="cluster">
<title>cluster_AppModule_declarations</title>
<polygon fill="none" stroke="black" points="16,-78 16,-130 1505,-130 1505,-78 16,-78"/>
</g>
<!-- AppComponent -->
<g id="node1" class="node">
<title>AppComponent</title>
<polygon fill="#ffffb3" stroke="black" points="1496.94,-122 1391.06,-122 1391.06,-86 1496.94,-86 1496.94,-122"/>
<text text-anchor="middle" x="1444" y="-99.8" font-family="Times,serif" font-size="14.00">AppComponent</text>
</g>
<!-- AppModule -->
<g id="node11" class="node">
<title>AppModule</title>
<polygon fill="#8dd3c7" stroke="black" points="1220.66,-187 1217.66,-191 1196.66,-191 1193.66,-187 1137.34,-187 1137.34,-151 1220.66,-151 1220.66,-187"/>
<text text-anchor="middle" x="1179" y="-164.8" font-family="Times,serif" font-size="14.00">AppModule</text>
</g>
<!-- AppComponent&#45;&gt;AppModule -->
<g id="edge1" class="edge">
<title>AppComponent&#45;&gt;AppModule</title>
<path fill="none" stroke="black" d="M1444,-122.03C1444,-138.4 1444,-160 1444,-160 1444,-160 1230.7,-160 1230.7,-160"/>
<polygon fill="black" stroke="black" points="1230.7,-156.5 1220.7,-160 1230.7,-163.5 1230.7,-156.5"/>
</g>
<!-- FooterComponent -->
<g id="node2" class="node">
<title>FooterComponent</title>
<polygon fill="#ffffb3" stroke="black" points="1372.88,-122 1255.12,-122 1255.12,-86 1372.88,-86 1372.88,-122"/>
<text text-anchor="middle" x="1314" y="-99.8" font-family="Times,serif" font-size="14.00">FooterComponent</text>
</g>
<!-- FooterComponent&#45;&gt;AppModule -->
<g id="edge2" class="edge">
<title>FooterComponent&#45;&gt;AppModule</title>
<path fill="none" stroke="black" d="M1314,-122.19C1314,-137.18 1314,-156 1314,-156 1314,-156 1230.97,-156 1230.97,-156"/>
<polygon fill="black" stroke="black" points="1230.97,-152.5 1220.97,-156 1230.97,-159.5 1230.97,-152.5"/>
</g>
<!-- HomeComponent -->
<g id="node3" class="node">
<title>HomeComponent</title>
<polygon fill="#ffffb3" stroke="black" points="1236.55,-122 1121.45,-122 1121.45,-86 1236.55,-86 1236.55,-122"/>
<text text-anchor="middle" x="1179" y="-99.8" font-family="Times,serif" font-size="14.00">HomeComponent</text>
</g>
<!-- HomeComponent&#45;&gt;AppModule -->
<g id="edge3" class="edge">
<title>HomeComponent&#45;&gt;AppModule</title>
<path fill="none" stroke="black" d="M1179,-122.11C1179,-122.11 1179,-140.99 1179,-140.99"/>
<polygon fill="black" stroke="black" points="1175.5,-140.99 1179,-150.99 1182.5,-140.99 1175.5,-140.99"/>
</g>
<!-- NavComponent -->
<g id="node4" class="node">
<title>NavComponent</title>
<polygon fill="#ffffb3" stroke="black" points="1103.15,-122 998.85,-122 998.85,-86 1103.15,-86 1103.15,-122"/>
<text text-anchor="middle" x="1051" y="-99.8" font-family="Times,serif" font-size="14.00">NavComponent</text>
</g>
<!-- NavComponent&#45;&gt;AppModule -->
<g id="edge4" class="edge">
<title>NavComponent&#45;&gt;AppModule</title>
<path fill="none" stroke="black" d="M1051,-122.19C1051,-137.18 1051,-156 1051,-156 1051,-156 1127.09,-156 1127.09,-156"/>
<polygon fill="black" stroke="black" points="1127.09,-159.5 1137.09,-156 1127.09,-152.5 1127.09,-159.5"/>
</g>
<!-- ProfileCardComponent -->
<g id="node5" class="node">
<title>ProfileCardComponent</title>
<polygon fill="#ffffb3" stroke="black" points="980.14,-122 833.86,-122 833.86,-86 980.14,-86 980.14,-122"/>
<text text-anchor="middle" x="907" y="-99.8" font-family="Times,serif" font-size="14.00">ProfileCardComponent</text>
</g>
<!-- ProfileCardComponent&#45;&gt;AppModule -->
<g id="edge5" class="edge">
<title>ProfileCardComponent&#45;&gt;AppModule</title>
<path fill="none" stroke="black" d="M907,-122.03C907,-138.4 907,-160 907,-160 907,-160 1127.1,-160 1127.1,-160"/>
<polygon fill="black" stroke="black" points="1127.1,-163.5 1137.1,-160 1127.1,-156.5 1127.1,-163.5"/>
</g>
<!-- ReservationFormComponent -->
<g id="node6" class="node">
<title>ReservationFormComponent</title>
<polygon fill="#ffffb3" stroke="black" points="815.03,-122 636.97,-122 636.97,-86 815.03,-86 815.03,-122"/>
<text text-anchor="middle" x="726" y="-99.8" font-family="Times,serif" font-size="14.00">ReservationFormComponent</text>
</g>
<!-- ReservationFormComponent&#45;&gt;AppModule -->
<g id="edge6" class="edge">
<title>ReservationFormComponent&#45;&gt;AppModule</title>
<path fill="none" stroke="black" d="M726,-122.3C726,-140.27 726,-165 726,-165 726,-165 1127.19,-165 1127.19,-165"/>
<polygon fill="black" stroke="black" points="1127.19,-168.5 1137.19,-165 1127.19,-161.5 1127.19,-168.5"/>
</g>
<!-- ReservationsComponent -->
<g id="node7" class="node">
<title>ReservationsComponent</title>
<polygon fill="#ffffb3" stroke="black" points="618.64,-122 465.36,-122 465.36,-86 618.64,-86 618.64,-122"/>
<text text-anchor="middle" x="542" y="-99.8" font-family="Times,serif" font-size="14.00">ReservationsComponent</text>
</g>
<!-- ReservationsComponent&#45;&gt;AppModule -->
<g id="edge7" class="edge">
<title>ReservationsComponent&#45;&gt;AppModule</title>
<path fill="none" stroke="black" d="M542,-122.11C542,-141.34 542,-169 542,-169 542,-169 1127.2,-169 1127.2,-169"/>
<polygon fill="black" stroke="black" points="1127.2,-172.5 1137.2,-169 1127.2,-165.5 1127.2,-172.5"/>
</g>
<!-- ReserverComponent -->
<g id="node8" class="node">
<title>ReserverComponent</title>
<polygon fill="#ffffb3" stroke="black" points="447.58,-122 316.42,-122 316.42,-86 447.58,-86 447.58,-122"/>
<text text-anchor="middle" x="382" y="-99.8" font-family="Times,serif" font-size="14.00">ReserverComponent</text>
</g>
<!-- ReserverComponent&#45;&gt;AppModule -->
<g id="edge8" class="edge">
<title>ReserverComponent&#45;&gt;AppModule</title>
<path fill="none" stroke="black" d="M382,-122.03C382,-142.77 382,-174 382,-174 382,-174 1127.27,-174 1127.27,-174"/>
<polygon fill="black" stroke="black" points="1127.27,-177.5 1137.27,-174 1127.27,-170.5 1127.27,-177.5"/>
</g>
<!-- TablesMapComponent -->
<g id="node9" class="node">
<title>TablesMapComponent</title>
<polygon fill="#ffffb3" stroke="black" points="298.31,-122 153.69,-122 153.69,-86 298.31,-86 298.31,-122"/>
<text text-anchor="middle" x="226" y="-99.8" font-family="Times,serif" font-size="14.00">TablesMapComponent</text>
</g>
<!-- TablesMapComponent&#45;&gt;AppModule -->
<g id="edge9" class="edge">
<title>TablesMapComponent&#45;&gt;AppModule</title>
<path fill="none" stroke="black" d="M226,-122.29C226,-144.21 226,-178 226,-178 226,-178 1127.13,-178 1127.13,-178"/>
<polygon fill="black" stroke="black" points="1127.13,-181.5 1137.13,-178 1127.13,-174.5 1127.13,-181.5"/>
</g>
<!-- ToastComponent -->
<g id="node10" class="node">
<title>ToastComponent</title>
<polygon fill="#ffffb3" stroke="black" points="136.44,-122 23.56,-122 23.56,-86 136.44,-86 136.44,-122"/>
<text text-anchor="middle" x="80" y="-99.8" font-family="Times,serif" font-size="14.00">ToastComponent</text>
</g>
<!-- ToastComponent&#45;&gt;AppModule -->
<g id="edge10" class="edge">
<title>ToastComponent&#45;&gt;AppModule</title>
<path fill="none" stroke="black" d="M80,-122.32C80,-145.66 80,-183 80,-183 80,-183 1127.26,-183 1127.26,-183"/>
<polygon fill="black" stroke="black" points="1127.26,-186.5 1137.26,-183 1127.26,-179.5 1127.26,-186.5"/>
</g>
<!-- AppComponent  -->
<g id="node17" class="node">
<title>AppComponent </title>
<polygon fill="#80b1d3" stroke="black" points="1233.44,-252 1124.56,-252 1124.56,-216 1233.44,-216 1233.44,-252"/>
<text text-anchor="middle" x="1179" y="-229.8" font-family="Times,serif" font-size="14.00">AppComponent </text>
</g>
<!-- AppModule&#45;&gt;AppComponent  -->
<g id="edge16" class="edge">
<title>AppModule&#45;&gt;AppComponent </title>
<path fill="none" stroke="black" stroke-dasharray="1,5" d="M1179,-187.11C1179,-187.11 1179,-205.99 1179,-205.99"/>
<polygon fill="black" stroke="black" points="1175.5,-205.99 1179,-215.99 1182.5,-205.99 1175.5,-205.99"/>
</g>
<!-- AppRoutingModule -->
<g id="node12" class="node">
<title>AppRoutingModule</title>
<polygon fill="#8dd3c7" stroke="black" points="2136.27,-122 2133.27,-126 2112.27,-126 2109.27,-122 2007.73,-122 2007.73,-86 2136.27,-86 2136.27,-122"/>
<text text-anchor="middle" x="2072" y="-99.8" font-family="Times,serif" font-size="14.00">AppRoutingModule</text>
</g>
<!-- AppRoutingModule&#45;&gt;AppModule -->
<g id="edge11" class="edge">
<title>AppRoutingModule&#45;&gt;AppModule</title>
<path fill="none" stroke="black" d="M2072,-122.32C2072,-145.66 2072,-183 2072,-183 2072,-183 1230.87,-183 1230.87,-183"/>
<polygon fill="black" stroke="black" points="1230.87,-179.5 1220.87,-183 1230.87,-186.5 1230.87,-179.5"/>
</g>
<!-- NgOptimizedImage -->
<g id="node13" class="node">
<title>NgOptimizedImage</title>
<polygon fill="#8dd3c7" stroke="black" points="1989.69,-122 1986.69,-126 1965.69,-126 1962.69,-122 1862.31,-122 1862.31,-86 1989.69,-86 1989.69,-122"/>
<text text-anchor="middle" x="1926" y="-99.8" font-family="Times,serif" font-size="14.00">NgOptimizedImage</text>
</g>
<!-- NgOptimizedImage&#45;&gt;AppModule -->
<g id="edge12" class="edge">
<title>NgOptimizedImage&#45;&gt;AppModule</title>
<path fill="none" stroke="black" d="M1926,-122.29C1926,-144.21 1926,-178 1926,-178 1926,-178 1230.76,-178 1230.76,-178"/>
<polygon fill="black" stroke="black" points="1230.76,-174.5 1220.76,-178 1230.76,-181.5 1230.76,-174.5"/>
</g>
<!-- RouterLink -->
<g id="node14" class="node">
<title>RouterLink</title>
<polygon fill="#8dd3c7" stroke="black" points="1844.05,-122 1841.05,-126 1820.05,-126 1817.05,-122 1763.95,-122 1763.95,-86 1844.05,-86 1844.05,-122"/>
<text text-anchor="middle" x="1804" y="-99.8" font-family="Times,serif" font-size="14.00">RouterLink</text>
</g>
<!-- RouterLink&#45;&gt;AppModule -->
<g id="edge13" class="edge">
<title>RouterLink&#45;&gt;AppModule</title>
<path fill="none" stroke="black" d="M1804,-122.03C1804,-142.77 1804,-174 1804,-174 1804,-174 1230.98,-174 1230.98,-174"/>
<polygon fill="black" stroke="black" points="1230.98,-170.5 1220.98,-174 1230.98,-177.5 1230.98,-170.5"/>
</g>
<!-- RouterLinkActive -->
<g id="node15" class="node">
<title>RouterLinkActive</title>
<polygon fill="#8dd3c7" stroke="black" points="1745.86,-122 1742.86,-126 1721.86,-126 1718.86,-122 1628.14,-122 1628.14,-86 1745.86,-86 1745.86,-122"/>
<text text-anchor="middle" x="1687" y="-99.8" font-family="Times,serif" font-size="14.00">RouterLinkActive</text>
</g>
<!-- RouterLinkActive&#45;&gt;AppModule -->
<g id="edge14" class="edge">
<title>RouterLinkActive&#45;&gt;AppModule</title>
<path fill="none" stroke="black" d="M1687,-122.11C1687,-141.34 1687,-169 1687,-169 1687,-169 1231,-169 1231,-169"/>
<polygon fill="black" stroke="black" points="1231,-165.5 1221,-169 1231,-172.5 1231,-165.5"/>
</g>
<!-- RouterOutlet -->
<g id="node16" class="node">
<title>RouterOutlet</title>
<polygon fill="#8dd3c7" stroke="black" points="1610.6,-122 1607.6,-126 1586.6,-126 1583.6,-122 1521.4,-122 1521.4,-86 1610.6,-86 1610.6,-122"/>
<text text-anchor="middle" x="1566" y="-99.8" font-family="Times,serif" font-size="14.00">RouterOutlet</text>
</g>
<!-- RouterOutlet&#45;&gt;AppModule -->
<g id="edge15" class="edge">
<title>RouterOutlet&#45;&gt;AppModule</title>
<path fill="none" stroke="black" d="M1566,-122.3C1566,-140.27 1566,-165 1566,-165 1566,-165 1230.78,-165 1230.78,-165"/>
<polygon fill="black" stroke="black" points="1230.78,-161.5 1220.78,-165 1230.78,-168.5 1230.78,-161.5"/>
</g>
</g>
</svg>
