<?xml version="1.0" encoding="UTF-8" standalone="no"?>
<!DOCTYPE svg PUBLIC "-//W3C//DTD SVG 1.1//EN"
 "http://www.w3.org/Graphics/SVG/1.1/DTD/svg11.dtd">
<!-- Generated by graphviz version 2.47.0 (20210316.0004)
 -->
<!-- Title: dependencies Pages: 1 -->
<svg width="504pt" height="284pt"
 viewBox="0.00 0.00 504.00 284.00" xmlns="http://www.w3.org/2000/svg" xmlns:xlink="http://www.w3.org/1999/xlink">
<g id="graph0" class="graph" transform="scale(1 1) rotate(0) translate(4 280)">
<title>dependencies</title>
<polygon fill="white" stroke="transparent" points="-4,4 -4,-280 500,-280 500,4 -4,4"/>
<text text-anchor="start" x="227.01" y="-42.4" font-family="Times-12" font-weight="bold" font-size="14.00">Legend</text>
<polygon fill="#ffffb3" stroke="transparent" points="14,-10 14,-30 34,-30 34,-10 14,-10"/>
<text text-anchor="start" x="37.63" y="-15.4" font-family="Times-12" font-size="14.00"> &#160;Declarations</text>
<polygon fill="#8dd3c7" stroke="transparent" points="127,-10 127,-30 147,-30 147,-10 127,-10"/>
<text text-anchor="start" x="150.73" y="-15.4" font-family="Times-12" font-size="14.00"> &#160;Module</text>
<polygon fill="#80b1d3" stroke="transparent" points="213,-10 213,-30 233,-30 233,-10 213,-10"/>
<text text-anchor="start" x="236.78" y="-15.4" font-family="Times-12" font-size="14.00"> &#160;Bootstrap</text>
<polygon fill="#fdb462" stroke="transparent" points="310,-10 310,-30 330,-30 330,-10 310,-10"/>
<text text-anchor="start" x="333.67" y="-15.4" font-family="Times-12" font-size="14.00"> &#160;Providers</text>
<polygon fill="#fb8072" stroke="transparent" points="406,-10 406,-30 426,-30 426,-10 406,-10"/>
<text text-anchor="start" x="429.73" y="-15.4" font-family="Times-12" font-size="14.00"> &#160;Exports</text>
<g id="clust1" class="cluster">
<title>cluster_PipesModule</title>
<polygon fill="none" stroke="black" stroke-dasharray="1,5" points="123,-70 123,-268 373,-268 373,-70 123,-70"/>
</g>
<g id="clust2" class="cluster">
<title>cluster_PipesModule_declarations</title>
<polygon fill="none" stroke="black" points="135,-78 135,-130 361,-130 361,-78 135,-78"/>
</g>
<g id="clust6" class="cluster">
<title>cluster_PipesModule_exports</title>
<polygon fill="none" stroke="black" points="131,-208 131,-260 365,-260 365,-208 131,-208"/>
</g>
<!-- FormTitlePipe -->
<g id="node1" class="node">
<title>FormTitlePipe</title>
<polygon fill="#ffffb3" stroke="black" points="352.66,-122 255.34,-122 255.34,-86 352.66,-86 352.66,-122"/>
<text text-anchor="middle" x="304" y="-99.8" font-family="Times,serif" font-size="14.00">FormTitlePipe</text>
</g>
<!-- PipesModule -->
<g id="node3" class="node">
<title>PipesModule</title>
<polygon fill="#8dd3c7" stroke="black" points="235.88,-187 232.88,-191 211.88,-191 208.88,-187 146.12,-187 146.12,-151 235.88,-151 235.88,-187"/>
<text text-anchor="middle" x="191" y="-164.8" font-family="Times,serif" font-size="14.00">PipesModule</text>
</g>
<!-- FormTitlePipe&#45;&gt;PipesModule -->
<g id="edge1" class="edge">
<title>FormTitlePipe&#45;&gt;PipesModule</title>
<path fill="none" stroke="black" d="M320.36,-122.02C320.36,-139.37 320.36,-163 320.36,-163 320.36,-163 246.24,-163 246.24,-163"/>
<polygon fill="black" stroke="black" points="246.24,-159.5 236.24,-163 246.24,-166.5 246.24,-159.5"/>
</g>
<!-- OccupiedPipe -->
<g id="node2" class="node">
<title>OccupiedPipe</title>
<polygon fill="#ffffb3" stroke="black" points="237.03,-122 142.97,-122 142.97,-86 237.03,-86 237.03,-122"/>
<text text-anchor="middle" x="190" y="-99.8" font-family="Times,serif" font-size="14.00">OccupiedPipe</text>
</g>
<!-- OccupiedPipe&#45;&gt;PipesModule -->
<g id="edge2" class="edge">
<title>OccupiedPipe&#45;&gt;PipesModule</title>
<path fill="none" stroke="black" d="M191,-122.11C191,-122.11 191,-140.99 191,-140.99"/>
<polygon fill="black" stroke="black" points="187.5,-140.99 191,-150.99 194.5,-140.99 187.5,-140.99"/>
</g>
<!-- FormTitlePipe  -->
<g id="node4" class="node">
<title>FormTitlePipe </title>
<polygon fill="#fb8072" stroke="black" points="356.66,-252 255.34,-252 255.34,-216 356.66,-216 356.66,-252"/>
<text text-anchor="middle" x="306" y="-229.8" font-family="Times,serif" font-size="14.00">FormTitlePipe </text>
</g>
<!-- PipesModule&#45;&gt;FormTitlePipe  -->
<g id="edge3" class="edge">
<title>PipesModule&#45;&gt;FormTitlePipe </title>
<path fill="none" stroke="black" stroke-dasharray="5,2" d="M236.04,-175C261.34,-175 287.89,-175 287.89,-175 287.89,-175 287.89,-205.98 287.89,-205.98"/>
<polygon fill="black" stroke="black" points="284.39,-205.98 287.89,-215.98 291.39,-205.98 284.39,-205.98"/>
</g>
<!-- OccupiedPipe  -->
<g id="node5" class="node">
<title>OccupiedPipe </title>
<polygon fill="#fb8072" stroke="black" points="237.03,-252 138.97,-252 138.97,-216 237.03,-216 237.03,-252"/>
<text text-anchor="middle" x="188" y="-229.8" font-family="Times,serif" font-size="14.00">OccupiedPipe </text>
</g>
<!-- PipesModule&#45;&gt;OccupiedPipe  -->
<g id="edge4" class="edge">
<title>PipesModule&#45;&gt;OccupiedPipe </title>
<path fill="none" stroke="black" stroke-dasharray="5,2" d="M191,-187.11C191,-187.11 191,-205.99 191,-205.99"/>
<polygon fill="black" stroke="black" points="187.5,-205.99 191,-215.99 194.5,-205.99 187.5,-205.99"/>
</g>
</g>
</svg>
